Merlin Season 5 Episode 8 The Hollow Queen



As a deadly net closes in around Arthur, Merlin finds himself far from Camelot. 

Format                                   : MPEG-4
Format profile                           : Base Media / Version 2
Codec ID                                 : mp42
File size                                : 455 MiB
Duration                                 : 42mn 52s
Overall bit rate mode                    : Variable
Overall bit rate                         : 1 484 Kbps
Encoded date                             : UTC 2012-11-25 00:36:29
Tagged date                              : UTC 2012-11-25 00:51:27
Writing application                      : HandBrake 0.9.8 2012071700

Video
ID                                       : 1
Format                                   : AVC
Format/Info                              : Advanced Video Codec
Format profile                           : Main@L3.1
Format settings, CABAC                   : Yes
Format settings, ReFrames                : 4 frames
Codec ID                                 : avc1
Codec ID/Info                            : Advanced Video Coding
Duration                                 : 42mn 52s
Bit rate mode                            : Variable


Bit rate                                 : 1 320 Kbps
Width                                    : 1 280 pixels
Height                                   : 720 pixels
Display aspect ratio                     : 16:9
Frame rate mode                          : Variable
Frame rate                               : 25.000 fps
Minimum frame rate                       : 8.929 fps
Maximum frame rate                       : 200.000 fps
Color space                              : YUV
Chroma subsampling                       : 4:2:0
Bit depth                                : 8 bits
Scan type                                : Progressive
Bits/(Pixel*Frame)                       : 0.057
Stream size                              : 405 MiB (89%)
Writing library                          : x264 core 120

Audio
ID                                       : 2
Format                                   : AAC
Format/Info                              : Advanced Audio Codec
Format profile                           : LC
Codec ID                                 : 40
Duration                                 : 42mn 52s
Bit rate mode                            : Variable
Bit rate                                 : 160 Kbps
Maximum bit rate                         : 215 Kbps
Channel(s)                               : 2 channels
Channel positions                        : Front: L R
Sampling rate                            : 48.0 KHz
Compression mode                         : Lossy
Stream size                              : 49.0 MiB (11%)
Encoded date                             : UTC 2012-11-25 00:36:29
Tagged date                              : UTC 2012-11-25 00:51:21

